<?xml version="1.0" encoding="UTF-8"?>
<svg id="Capa_1" data-name="Capa 1" xmlns="http://www.w3.org/2000/svg" viewBox="0 0 256 254">
  <g>
    <path d="M163.96,73.11h-25.04V23.02h24.33c10.34,0,17.03,5.6,17.03,14.27,0,4.27-1.57,7.78-4.46,10.09,3.23,2.37,5.1,6.22,5.1,10.69,0,9.13-6.66,15.04-16.96,15.04m14.95,18.54h-24.41v5.01h21.81v13.33h-21.81v4.69h24.41v13.53h-39.99v-50.08h39.99v13.53Zm-.01,55.99h-13.22v31.67h-13.53v-31.67h-13.22v-14.42h39.96v14.42ZM158.91-.47C117.51-.47,82.1,25.19,67.71,61.47V4.1H-1V191.13H67.71v-57.37c14.39,36.28,49.8,61.94,91.21,61.94,54.17,0,98.09-43.91,98.09-98.09S213.09-.47,158.91-.47"/>
    <path d="M161.65,53.8h-7.15v6.23h7.15c3.25,0,3.63-1.89,3.63-3.31,0-2.64-2.54-2.92-3.63-2.92"/>
    <path d="M164.7,38.57c0-.85,0-2.86-3.75-2.86h-6.45v5.72h6.45c3.75,0,3.75-2.15,3.75-2.86"/>
  </g>
  <g>
    <path d="M2.76,253.1v-37.14H15.33c5.87,0,10.46,1.81,13.77,5.44,3.31,3.63,4.96,8,4.96,13.13s-1.65,9.51-4.96,13.13-7.9,5.44-13.77,5.44H2.76Zm6.1-5.46h5.94c4.24,0,7.47-1.27,9.68-3.82,2.21-2.55,3.32-5.64,3.32-9.28s-1.11-6.74-3.32-9.28c-2.21-2.55-5.44-3.82-9.68-3.82h-5.94v26.21Z"/>
    <path d="M39.63,253.1v-37.14h21.43v5.46h-15.33v10.5h15.33v5.46h-15.33v10.24h15.33v5.46h-21.43Z"/>
    <path d="M82.18,215.96c3.71,0,6.76,1.22,9.15,3.66,2.39,2.44,3.58,5.55,3.58,9.34s-1.19,6.9-3.58,9.34c-2.39,2.44-5.44,3.66-9.15,3.66h-7.59v11.14h-6.1v-37.14h13.69Zm-.37,20.53c2.02,0,3.69-.72,5.01-2.15,1.33-1.43,1.99-3.23,1.99-5.38s-.66-3.95-1.99-5.38c-1.33-1.43-3-2.15-5.01-2.15h-7.21v15.07h7.21Z"/>
    <path d="M131.01,248.38c-3.48,3.75-8.14,5.62-13.98,5.62s-10.5-1.88-13.98-5.62c-3.48-3.75-5.23-8.36-5.23-13.85s1.74-10.1,5.23-13.85c3.48-3.75,8.14-5.62,13.98-5.62s10.5,1.88,13.98,5.62c3.48,3.75,5.23,8.37,5.23,13.85s-1.74,10.1-5.23,13.85Zm-23.4-3.85c2.28,2.67,5.42,4,9.42,4s7.13-1.33,9.42-4,3.4-6,3.37-10c.04-4-1.09-7.33-3.37-10-2.28-2.67-5.42-4-9.42-4s-7.14,1.33-9.42,4c-2.28,2.67-3.4,6-3.37,10-.04,4,1.09,7.33,3.37,10Z"/>
    <path d="M168.49,228.96c0,2.87-.72,5.38-2.15,7.53-1.43,2.16-3.35,3.7-5.76,4.62l7.32,11.99h-6.95l-6.79-11.14h-5.99v11.14h-6.1v-37.14h13.69c3.71,0,6.76,1.22,9.15,3.66,2.39,2.44,3.58,5.55,3.58,9.34Zm-20.32-7.53v15.07h7.21c2.02,0,3.69-.72,5.01-2.15,1.33-1.43,1.99-3.23,1.99-5.38s-.66-3.95-1.99-5.38c-1.33-1.43-3-2.15-5.01-2.15h-7.21Z"/>
    <path d="M180.58,253.1v-31.41h-10.77v-5.73h27.69v5.73h-10.82v31.41h-6.1Z"/>
    <path d="M201.75,253.1v-37.14h21.43v5.46h-15.33v10.5h15.33v5.46h-15.33v10.24h15.33v5.46h-21.43Z"/>
    <path d="M240.69,254c-4.31,0-7.65-1.13-10-3.4-2.35-2.26-3.53-5.48-3.53-9.66h6.1c0,2.41,.65,4.3,1.96,5.68,1.31,1.38,3.11,2.07,5.41,2.07,2.02,0,3.56-.45,4.64-1.35,1.08-.9,1.62-2.18,1.62-3.85,0-1.41-.4-2.55-1.19-3.4-.8-.85-2.24-1.7-4.32-2.55l-6.05-2.44c-4.74-1.84-7.11-5.13-7.11-9.87,0-3.01,1.11-5.46,3.32-7.35,2.21-1.89,5.07-2.84,8.57-2.84,3.68,0,6.64,1.06,8.89,3.18s3.37,4.93,3.37,8.43h-6.1c0-2.05-.55-3.63-1.65-4.75-1.1-1.11-2.67-1.67-4.72-1.67-1.73,0-3.09,.42-4.06,1.25-.97,.83-1.46,1.95-1.46,3.37,0,1.27,.48,2.37,1.43,3.29,.95,.92,2.53,1.82,4.72,2.71l5.46,2.23c4.67,1.91,7,5.32,7,10.24,0,3.18-1.13,5.76-3.4,7.72-2.26,1.96-5.23,2.94-8.91,2.94Z"/>
  </g>
</svg>