<svg enable-background="new 0 0 300 180" height="180" viewBox="0 0 300 180" width="300" xmlns="http://www.w3.org/2000/svg"><path d="m209.4043 1.8710938c-22.90005.0060837-43.76978 8.7012202-59.49219 22.9648442a88.605003 88.605003 0 0 1 28.74609 57.269531c3.6562-9.509171 11.39997-14.488281 19.30274-14.488281 4.904 0 10.625 2.316406 10.625 2.316406l-1.53906 9.992187c-.00001 0-3.85902-2.699219-8.66602-2.699219-6.41.000001-12.16797 6.126672-12.16797 17.263672 0 5.49 2.68495 10.601566 9.37695 10.601566 3.177 0 7.80469-2.32227 7.80469-2.32227l-1.6875 10.28516s-5.07091 1.29397-8.25391 1.29297c-7.91875 0-13.08514-3.857-15.46093-10.23243a88.605003 88.605003 0 0 1 -28.08203 52.04688c15.73354 14.27454 36.62025 22.97046 59.53906 22.96484 48.936-.013 88.59603-39.69095 88.58203-88.62695v-.044922c-.013-48.936-39.68995-88.5969845-88.62695-88.5839842zm79.90429 66.7812502-7.20703 44.863276h-9.17578l.41602-3.36523s-3.13416 3.94141-8.78516 3.94141c-7.856 0-11.69922-7.57469-11.69922-15.304691 0-11.975 7.20561-22.396484 15.84961-22.396484 5.559 0 9.10938 4.904297 9.10938 4.904297l2.03515-12.626953zm-65.83398 7.490234c3.34 0 12.95608.354953 12.95508 11.376953l-3.70508 25.982419h-8.30664l.30859-3.60547c-.152.013-3.01978 4.33204-9.67578 4.33204-3.485 0-9.10742-1.89793-9.10742-10.16993 0-10.497988 8.57052-13.980465 16.72852-13.980465 1.28399 0 4.05468.232422 4.05468.232422s.31446-.641.31446-2.375c0-2.855-2.56904-3.25-6.08204-3.25-6.187 0-10.27929 1.664062-10.27929 1.664062l1.36719-8.126953s4.95873-2.080078 11.42773-2.080078zm32.04492.435547c1.232 0 1.81836.123047 1.81836.123047-1.251 2.558-2.35881 4.897406-3.50781 10.941406-6.551-2.321-7.05964 10.358601-9.80664 25.974612h-9.6875l5.88476-36.566409h8.78321l-.83985 5.300781s3.13047-5.773437 7.35547-5.773437zm14.8125 8.886719c-4.145 0-7.42969 4.824672-7.42969 12.138672 0 4.473004 1.59133 7.324214 4.98633 7.324214 5.115 0 7.58203-6.657621 7.58203-11.640621 0-5.492-1.74267-7.823265-5.13867-7.822265zm-46.88672 11.613281c-6.912 0-8.31445 3.101595-8.31445 5.683595 0 1.324.75945 3.56055 3.68945 3.56055 5.682 0 6.85969-7.438395 6.67969-9.025395-.274-.044-.44669-.21675-2.05469-.21875zm65.66016 10.896485c.479 0 .95125.12305 1.40625.37305.459.242.81431.59759 1.07031 1.05859.257.458.38477.93655.38477 1.43555 0 .493-.12591.96882-.37891 1.42382-.251.455-.60555.81151-1.06055 1.0625-.454.25-.92982.37501-1.42382.375-.498 0-.97274-.125-1.42774-.375-.454-.253-.80659-.6075-1.05859-1.0625-.256-.45499-.38086-.93082-.38086-1.42382 0-.499.12581-.97755.38281-1.43555.258-.461.61722-.81459 1.07422-1.05859.461-.25.93311-.37305 1.41211-.37305zm0 .47266c-.401 0-.79278.1035-1.17578.3125-.382.204-.67953.49876-.89453.88476-.214.381-.32227.78131-.32227 1.19531s.1035.8095.3125 1.1875c.213.377.51058.67177.89258.88477.378.208.7725.31445 1.1875.31445.412 0 .8095-.10645 1.1875-.31445.378-.213.67476-.50777.88476-.88477.211-.381.3125-.7735.3125-1.1875s-.10631-.81431-.32031-1.19531c-.213-.386-.51053-.68076-.89453-.88476-.38-.208-.76792-.3125-1.16992-.3125zm-1.25586.89257h1.06055c.361 0 .62515.02889.78515.08789.162.055.28967.15388.38867.29688.097.142.14649.29117.14649.45117 0 .225-.08214.42189-.24414.58789-.158.166-.37072.26325-.63672.28125.106.046.19372.10011.26172.16211.123.122.27508.32633.45508.61133l.37695.60352h-.60938l-.27148-.48438c-.216-.383-.38753-.62175-.51953-.71875-.091-.071-.22539-.10547-.40039-.10547h-.29102v1.31055h-.50195zm.5.41797v.92969h.60156c.289 0 .48389-.04291.58789-.12891.105-.084.16016-.19879.16016-.34179 0-.091-.02422-.17319-.07422-.24219-.051-.074-.12189-.12706-.21289-.16406-.091-.035-.25405-.05274-.49805-.05274z" fill="#fff"/><path d="m90.001953 1.8945312c-48.646.3090001-88.0351561 39.8864688-88.0351561 88.6054688 0 48.909 39.6954691 88.60352 88.6054691 88.60352 22.955004 0 43.878044-8.74794 59.623044-23.08594-.001 0-.00186-.00191-.00586-.00391h.01758c3.224-2.938 6.23209-6.10828 8.99609-9.48828h-18.15234c-2.424-2.928-4.62842-5.97895-6.60742-9.12695h31.30859c1.904-3.047 3.62821-6.21128 5.15821-9.48828h-41.63477c-1.419-3.042-2.65112-6.1526-3.70312-9.3086h49.04492c1.53463-4.5852 2.69622-9.339 3.46679-14.22265-1.06714-2.74492-1.60937-5.966215-1.60937-9.568363 0-4.979126.83442-9.305931 2.27539-12.953125-.16672-1.715844-.38142-3.417031-.64258-5.103516-1.2415 2.537751-2.34129 4.885902-3.48047 10.888672-6.553-2.321-7.06259 10.358596-9.80859 25.974612h-9.6875l5.88476-36.566409h8.78321l-.8418 5.300781s3.13047-5.773437 7.35547-5.773437c1.18657 0 1.74534.110727 1.78711.119141-.27078-1.74124-.59212-3.466453-.96484-5.171875h-54.16407c.671-3.146 1.51735-6.254594 2.52735-9.308594h49.06445c-1.097-3.25-2.37131-6.416328-3.82031-9.486328h-41.47266c1.496-3.196 3.19099-6.304641 5.08399-9.306641h31.28515c-2.082-3.317-4.38595-6.486281-6.87695-9.488281h-17.44336c2.697-3.174 5.66567-6.164172 8.88867-8.951172-15.746-14.34-36.67476-23.0898437-59.634764-23.0898438-.191 0-.379313-.001-.570313 0zm-72.087891 66.7382808h13.767579l.484375 27.5625 9.300781-27.5625h14.935547l-7.4375 44.921878h-9.658203l5.371093-33.869143-12.125 33.869143h-6.5l-.84375-33.869143-5.742187 33.869143h-9.097656zm95.499998 2.898438h9.4336l-.95704 5.515625h4.70508l-1.20508 8.871094h-4.99023l-2.6543 16.361331c-.209 1.291.1535 3.03711 3.4375 3.03711.837 0 1.78664-.27735 2.43164-.27735l-1.18164 8.01953c-.946.254-3.62826 1.20733-7.07226 1.23633-4.398.04-7.51563-2.43328-7.51563-7.98828 0-3.752 5.36036-34.56739 5.56836-34.77539zm28.51758 4.464844c10.358 0 13.45117 7.573062 13.45117 13.789062 0 2.491-1.23828 8.605469-1.23828 8.605469h-19.17187s-1.77453 7.552735 8.35546 7.552735c4.754 0 10.01954-2.32031 10.01954-2.32031l-1.66211 9.09961s-3.04485 1.54687-9.96485 1.54687c-7.497 0-16.29687-3.168-16.29687-16.499999 0-11.551 7.02181-21.771437 16.50781-21.773437zm-71.384765.146484c3.34 0 12.955078.354953 12.955078 11.376953l-3.705078 25.982419h-8.308594l.3125-3.60547c-.153.013-3.023687 4.33204-9.679687 4.33204-3.485 0-9.107422-1.89793-9.107422-10.16993 0-10.497992 8.571469-13.980465 16.730469-13.980465 1.283 0 4.054687.232422 4.054687.232422s.314453-.641.314453-2.375c0-2.855-2.570984-3.25-6.083984-3.25-6.187 0-10.279297 1.664062-10.279297 1.664062l1.369141-8.126953s4.958734-2.080078 11.427734-2.080078zm28.927734.058594c5.392001 0 8.705081.741234 8.705081.740234l-1.19141 8.330078s-5.11531-.421875-6.44531-.421875c-3.350003 0-5.183595.738032-5.183595 3.082032 0 4.708 11.244145 2.392326 11.244145 14.111329 0 12.535-12.148442 11.99414-14.273442 11.99414-7.914 0-10.357937-1.0882-10.585937-1.1582l1.259765-8.2461c.014-.072 3.975953 1.4375 8.376953 1.4375 2.543 0 5.84375-.24815 5.84375-3.28515 0-4.550012-11.8125-3.464629-11.8125-14.265629 0-9.532 7.0835-12.318359 14.0625-12.318359zm42.492191 8.24414c-5.142.000001-6.13086 5.848797-6.13086 6.466797h10.47265c0-.484.98221-6.466793-4.34179-6.466797zm-71.449222 12.632813c-6.913 0-8.316406 3.101595-8.316406 5.683595 0 1.324.761406 3.56055 3.691406 3.56055 5.68 0 6.855781-7.438395 6.675781-9.025395-.271-.044-.442781-.21675-2.050781-.21875z" fill="#fff"/></svg>