<svg enable-background="new 0 0 258.381 161.154" height="323.65302" viewBox="0 0 1000.046 323.653" width="1000.046" xmlns="http://www.w3.org/2000/svg"><g fill="#fff"><path d="m109.296 24.995h18.286l-11.437 70.724h-18.287z" transform="matrix(4.4299631 0 0 4.4299631 -81.165783 -105.04783)"/><g stroke-width="4.429963"><path d="m727.0234 13.338504c-15.97888-6.3392773-41.3227-13.33861901-72.66026-13.33861901-80.0007 0-136.33654 42.66054501-136.68208 103.65227501-.6645 44.99957 40.33481 69.99342 70.99902 84.9977 31.34199 15.33211 41.99605 25.33939 41.99605 39.00583-.31896 20.98916-25.3261 30.6642-48.64986 30.6642-32.34316 0-49.67317-4.98814-76.0093-16.66552l-10.66736-5.00586-11.33627 70.3301c19.00011 8.65615 54.00568 16.3377 90.3491 16.67438 85.00213 0 140.34123-42.00048 140.99686-106.9969.32339-35.66563-21.32584-62.99407-67.99993-85.32552-28.33405-14.33536-45.68621-24.00154-45.68621-38.669147.33225-13.334189 14.67647-26.991765 46.6608-26.991765 26.33613-.668924 45.68621 5.661493 60.34496 11.99634l7.32716 3.326902z"/><path d="m834.69365 207.99108c6.67152-17.99894 32.34316-87.66011 32.34316-87.66011-.33668.66893 6.65823-18.33118 10.65849-29.995277l5.66149 26.996197s15.34097 74.99484 18.6723 90.65919c-12.66084 0-51.33442 0-67.33544 0zm99.99756-202.3119823h-62.66183c-19.3235 0-34.0044 5.6614933-42.34159 25.9950233l-120.33109 287.305259h85.00213s13.99426-38.66915 17.0022-46.99748h104.01111c2.32573 10.9996 9.66618 46.99748 9.66618 46.99748h75.00818z"/><path d="m284.67829 5.6790977-79.33621 213.6438323-8.66944-43.32947c-14.66761-49.99656-60.66834-104.316772-112.002754-131.326257l72.669114 273.984357h85.66663l127.33486-312.9724623z"/><path d="m131.67179 5.6790977h-130.3383702l-1.33341888 6.3304173c101.67207908 25.999453 169.00751908 88.670145 196.67263908 163.997235l-28.33404-143.991522c-4.66475-20.010143-19.00011-25.6760658-36.66681-26.3361303z"/></g></g></svg>