<?xml version="1.0" encoding="utf-8"?>
<!-- Generator: Adobe Illustrator 27.0.1, SVG Export Plug-In . SVG Version: 6.00 Build 0)  -->
<svg version="1.1" id="Capa_1" xmlns="http://www.w3.org/2000/svg" xmlns:xlink="http://www.w3.org/1999/xlink" x="0px" y="0px"
	 viewBox="0 0 300 180" style="enable-background:new 0 0 300 180;" xml:space="preserve">
<style type="text/css">
	.st0{fill:#FFFFFF;}
</style>
<image style="display:none;overflow:visible;enable-background:new    ;" width="300" height="180" xlink:href="Logo_OXXOPAY.png"  transform="matrix(0.9573 0 0 0.9573 7.2714 3.7726)">
</image>
<g id="uVwjjE.tif">
	<g>
		<path class="st0" d="M167.2,93.8c0-13.2,0-26.3,0-39.5c0-1.4,0.3-1.7,1.7-1.7c22.3,0,44.7,0,67,0c1.3,0,1.7,0.3,1.7,1.6
			c-0.1,5.7-0.1,11.4,0,17c0,1.3-0.4,1.7-1.7,1.7c-13.4,0-26.8,0-40.2,0c-2.5,0-2.1-0.3-2.1,2.2c0,1.6,0.1,3.2,0,4.7
			c-0.1,1.3,0.3,1.6,1.6,1.6c12.1,0,24.2,0,36.3,0c2.1,0,2-0.5,2.1,2c0,4.4-0.1,8.7,0,13.1c0,1.3-0.3,1.7-1.7,1.7
			c-12.1,0-24.3,0-36.4-0.1c-1.6,0-1.9,0.5-1.9,1.9c0.1,5.2,0.1,10.3,0,15.5c0,1.3,0.3,1.7,1.6,1.7c13.5-0.1,27,0,40.5-0.1
			c1.5,0,1.9,0.4,1.9,1.9c-0.1,4.8-0.1,9.7,0,14.5c0,1.2-0.3,1.5-1.5,1.5c-22.4,0-44.9,0-67.3,0c-1.3,0-1.6-0.4-1.6-1.6
			C167.2,120.2,167.2,107,167.2,93.8z"/>
		<path class="st0" d="M19.9,105.9c3.5-0.2,7.1-0.3,10.6-0.6c1-0.1,1.3,0.2,1.5,1.1c0.3,1.7,0.8,3.4,1.5,5c2.3,5.1,6.1,7.8,11.8,8.1
			c4,0.2,7.5-0.5,10.5-3.3c3.6-3.2,3.7-8,0-11c-2.2-1.8-4.7-2.8-7.4-3.4c-7.5-1.7-14.8-3.6-21.9-6.6c-3-1.3-5.9-2.9-8.5-4.8
			c-4-3-6.2-7.1-6.6-12.1c-1.2-13.6,6.4-24.2,19.9-26.8c10.9-2.1,21.9-1.9,32.8,1c7.2,1.9,12.1,6.2,14.1,13.5
			c0.7,2.6,1.5,5.2,2.3,7.7c0.2,0.8,0.1,1.1-0.8,1.2C72.3,75.3,65,75.6,57.6,76c-0.7,0-1.1-0.2-1.2-0.9c-0.1-0.5-0.3-1-0.4-1.5
			c-1.7-8.8-13.7-10.8-18.8-6.9c-3.6,2.8-3.7,6.9,0.2,9.2c2.7,1.6,5.7,2.1,8.7,2.9c6.6,1.6,13.3,2.9,19.6,5.6
			c3.3,1.5,6.5,3.2,9.4,5.4c5.3,3.8,7.9,9.1,8.3,15.5c0.8,12.5-6.8,23.3-19.4,27.8c-7.3,2.6-15,2.9-22.7,2.4
			c-5.9-0.3-11.6-1.5-17.1-3.5c-6.7-2.5-11.1-7-13.3-13.8c-1.2-3.5-2-7.1-3-10.6c-0.3-1,0.1-1,0.9-1
			C12.4,106.3,16.2,106.1,19.9,105.9C19.9,105.9,19.9,105.9,19.9,105.9z"/>
		<path class="st0" d="M256.9,112.9c5.5-7.3,10.9-14.5,16.4-21.7c0.4,0.2,0.3,0.4,0.3,0.6c0,13.5,0,27,0,40.5c0,1.2-0.3,1.5-1.5,1.5
			c-7.9-0.1-15.7-0.1-23.6,0c-1.2,0-1.6-0.2-1.6-1.5c0.1-11.4,0-22.8,0-34.2c0-1.1,0.2-1.6,1.5-1.5c2.6,0.1,5.3,0,7.9,0
			c0.4,0.5,0.2,1,0.2,1.5c0,4.5,0,9,0,13.5C256.5,111.9,256,112.6,256.9,112.9z"/>
		<path class="st0" d="M273.5,84c-5.7-7.6-11.3-14.9-16.8-22.3c-0.4,0.5-0.2,1-0.2,1.4c0,4.8,0,9.7,0,14.5c0,1-0.3,1.4-1.3,1.3
			c-2.3-0.1-4.6-0.1-7,0c-0.9,0-1.3-0.1-1.3-1.2c0-8.5,0-16.9,0-25.4c0-0.9,0.2-1.2,1.1-1.2c8.1,0,16.3,0.1,24.4,0
			c1.3,0,1.1,0.7,1.1,1.5C273.5,62.9,273.5,73.2,273.5,84z"/>
		<path class="st0" d="M256.9,112.9c-1,0.5-0.6-0.4-0.6-0.7c0-3.7,0-7.4,0-11.1c0-1.5,0-3-0.1-4.5c0.7,0.4,0.4,1,0.4,1.6
			c0,4.4,0,8.8,0,13.2C256.6,111.8,256.4,112.4,256.9,112.9z"/>
		<g>
			<path class="st0" d="M287.3,49.4c-0.8,0-1.7,0-2.5,0c-0.2,0.1-0.3,0.2-0.5,0.3c-3.5,1.1-5.4,4.4-4.5,7.9c0.8,3.3,4.1,5.4,7.6,4.8
				c2.8-0.5,4.3-2.4,5.4-4.8c0-1.1,0-2.1,0-3.2C292.1,51.5,290.4,49.8,287.3,49.4z M286.1,61.2c-2.9,0-5.2-2.3-5.3-5.2
				c0-2.9,2.4-5.3,5.3-5.3c2.9,0,5.2,2.4,5.3,5.2C291.4,58.9,289,61.2,286.1,61.2z"/>
		</g>
		<g>
			<path class="st0" d="M157.5,62.3c-1-2.3-2.5-4.3-4.7-5.6c-3.7-2.3-7.6-4.3-12.1-4.8c-2.7-0.3-5.4-0.4-8-0.5
				c-13.8-0.4-27.6-0.1-41.5-0.2c-1.4,0-1.6,0.4-1.6,1.7c0,13.3,0,26.6,0,39.9s0,26.6,0,39.9c0,1.2,0.2,1.7,1.6,1.7
				c7.7-0.1,15.4-0.1,23.1,0c1.4,0,1.6-0.5,1.6-1.7c-0.1-8.8,0-17.7-0.1-26.5c0-1.6,0.3-2.1,2-2.1c7.4,0.1,14.8,0.1,22.1-1
				c9.7-1.4,17.8-8.8,20.1-18.2C161.9,77.1,160.7,69.5,157.5,62.3z M129.1,86c-4.5,0.7-9.1,0.5-13.7,0.3c-0.4-0.2-0.3-0.5-0.3-0.8
				c0-5.3,0-10.7,0-16c0-0.3,0-0.5,0.2-0.7c1.5-0.8,3.1-0.3,4.6-0.5c3.3-0.3,6.5-0.1,9.7,0.4c2.2,0.4,3.7,1.6,4.7,3.6
				c1.1,2.2,1.6,4.5,1.5,6.8C135.8,82.4,132.8,85.5,129.1,86z"/>
		</g>
		<path class="st0" d="M115.4,68.8c0,5.9,0,11.7,0.1,17.6c-0.3-0.1-0.4-0.4-0.4-0.8c0-5.5,0-11.1,0-16.6c0-0.1,0-0.2,0.1-0.3
			C115.1,68.7,115.3,68.8,115.4,68.8z"/>
		<path class="st0" d="M124.8,86.9c-3,0-6,0-9.1,0c0,0,0-0.1,0-0.1c3,0,6,0,9.1,0C124.8,86.9,124.8,86.9,124.8,86.9z"/>
		<path class="st0" d="M117.9,67.9c-0.6,0.3-1.2,0.2-1.8,0C116.8,67.7,117.3,67.7,117.9,67.9z"/>
		<g>
			<path class="st0" d="M287.1,56.4c1-0.4,1.6-1.1,1.5-2.2c-0.1-0.8-0.5-1.3-1.2-1.5c-1.3-0.3-2.6-0.1-3.9-0.2
				c-0.4,0-0.5,0.3-0.5,0.6c0,1.8,0,3.7,0,5.5c0,0.6,0.3,0.7,0.8,0.7c0.5,0,0.7-0.2,0.7-0.7c0-0.4,0-0.7,0-1.1c0-0.3-0.2-0.8,0.3-1
				c0.5-0.2,0.9,0.1,1.2,0.5c0.3,0.4,0.6,0.8,0.9,1.3c0.5,0.9,1.1,1.2,2.2,0.8C288.6,58.2,287.9,57.3,287.1,56.4z M285.6,55.4
				c-0.5,0-1.1,0.2-1.2-0.7c0-1,0.5-1,1.2-0.9c0.6,0,1.5-0.1,1.5,0.8C287.1,55.5,286.3,55.4,285.6,55.4z"/>
		</g>
	</g>
</g>
</svg>
