<?xml version="1.0" encoding="utf-8"?>
<!-- Generator: Adobe Illustrator 27.0.1, SVG Export Plug-In . SVG Version: 6.00 Build 0)  -->
<svg version="1.1" id="Capa_1" xmlns="http://www.w3.org/2000/svg" xmlns:xlink="http://www.w3.org/1999/xlink" x="0px" y="0px"
	 viewBox="0 0 300 180" style="enable-background:new 0 0 300 180;" xml:space="preserve">
<style type="text/css">
	.st0{fill:#FFFFFF;}
</style>
<image style="display:none;overflow:visible;enable-background:new    ;" width="300" height="180" xlink:href="Logo_OXXOPAY.png"  transform="matrix(0.9573 0 0 0.9573 7.2714 -172.314)">
</image>
<g>
	<path class="st0" d="M28.2,129c-0.1-0.4-0.5-0.3-0.8-0.4c-8.6-1.7-15.5-9.2-16.5-17.9c-0.4-3.9-0.1-7.8-0.2-11.7
		c0-1.4,0-1.4-1.4-1.4c-1.6,0-3.3,0-4.9,0c-0.5,0-0.7-0.1-0.7-0.7c0-1.9,0-3.8,0-5.7c0-0.6,0.2-0.7,0.8-0.7c4.2,0,8.4,0,12.6,0
		c0.7,0,0.8,0.3,0.8,0.9c0,5.2,0,10.5,0,15.7c0,3.9,1,7.4,3.6,10.3c2.8,3,6.2,4.6,10.3,4.6c2.1,0,4.2,0,6.3,0c0.7,0,0.9,0.2,0.8,0.8
		c-0.1,2.1,0.1,4.2-0.1,6.2C35.2,129,31.7,129,28.2,129z"/>
	<path class="st0" d="M24.6,73.7c0-2.9,0.1-5.8,0-8.7c-0.3-6.5-5.8-12.3-12.4-12.8c-2.6-0.2-5.1-0.1-7.7-0.1c-0.8,0-1-0.2-0.9-1
		c0.1-1.8,0-3.6,0-5.4c0-0.4,0-0.7,0.6-0.7c3.8,0.1,7.6-0.3,11.3,0.6c8.9,2,15.6,9.9,16.1,18.9c0.2,3.7,0.1,7.4,0.1,11.1
		c0,0.8,0.3,0.9,0.9,0.9c1.8,0,3.6,0,5.3,0c0.6,0,0.8,0.2,0.8,0.8c0,1.8,0,3.7,0,5.5c0,0.6-0.1,0.9-0.8,0.9c-4.2,0-8.3,0-12.5,0
		c-0.7,0-0.8-0.3-0.8-0.9C24.6,79.7,24.6,76.7,24.6,73.7C24.6,73.7,24.6,73.7,24.6,73.7z"/>
	<path class="st0" d="M148.3,95.8c0-2.3,0-4.2,0-6.2c0-0.6-0.2-0.7-0.7-0.7c-1.2,0-2.4,0-3.6,0c-0.6,0-0.7-0.2-0.7-0.8
		c0-1.3,0-2.6,0-3.9c0-0.6,0.2-0.8,0.7-0.7c1.1,0,2.2,0,3.3,0c0.8,0,1.1-0.1,1-1c-0.1-1.7,0-3.5,0-5.2c0-0.6,0.1-0.9,0.8-0.9
		c1.6,0.1,3.2,0,4.7,0c0.6,0,0.7,0.2,0.7,0.7c0,1.8,0,3.6,0,5.4c0,0.7,0.1,0.9,0.9,0.9c1.7-0.1,3.4,0,5.1,0c0.6,0,0.8,0.1,0.8,0.7
		c0,1.3,0,2.6,0,3.9c0,0.7-0.2,0.8-0.8,0.8c-1.6,0-3.3,0-4.9,0c-0.9,0-1,0.3-1,1.1c0,3,0,6,0,9c0,0.6,0.1,1.2,0.2,1.8
		c0.4,1.4,1.3,2.1,3,2.1c0.9,0,1.9,0,2.8,0c0.5,0,0.7,0.1,0.7,0.7c0,1.3,0,2.7,0,4c0,0.4-0.1,0.6-0.6,0.6c-2.4-0.1-4.8,0.2-7.1-0.2
		c-2.8-0.5-4.5-2.1-5-4.9C148.2,100.5,148.4,98,148.3,95.8z"/>
	<path class="st0" d="M57.7,95.4c0-2.1-0.1-3.9,0-5.6c0-0.8-0.3-1-1-1c-1.1,0.1-2.3,0-3.4,0c-0.5,0-0.7-0.1-0.6-0.6
		c0-1.4,0-2.8,0-4.1c0-0.6,0.2-0.7,0.7-0.7c1.2,0,2.4,0,3.6,0c0.6,0,0.7-0.2,0.7-0.7c0-1.8,0-3.7,0-5.5c0-0.6,0.1-0.8,0.8-0.8
		c1.6,0,3.2,0,4.7,0c0.7,0,0.8,0.2,0.8,0.8c0,1.8,0,3.6,0,5.3c0,0.8,0.2,0.9,1,0.9c1.7-0.1,3.4,0,5,0c0.6,0,0.8,0.1,0.8,0.7
		c0,1.3,0,2.6,0,3.9c0,0.7-0.2,0.8-0.8,0.8c-1.7,0-3.4,0-5.1,0c-0.6,0-0.8,0.1-0.8,0.8c0,3.2,0,6.4,0,9.6c0,2.7,1,3.6,3.7,3.6
		c0.7,0,1.5,0,2.2,0c0.6,0,0.8,0.1,0.8,0.8c-0.1,1.3,0,2.6,0,3.9c0,0.3,0,0.6-0.4,0.6c-2.6-0.1-5.3,0.3-7.8-0.3
		c-2.8-0.7-4.2-2.5-4.6-5.6C57.6,99.8,57.7,97.4,57.7,95.4z"/>
	<path class="st0" d="M17.7,75.8c0,2.3,0,4.6,0,6.9c0,0.7-0.2,0.9-0.8,0.9c-4.2,0-8.3,0-12.5,0c-0.6,0-0.8-0.1-0.8-0.8
		c0-1.9,0-3.8,0-5.6c0-0.6,0.2-0.8,0.8-0.8c1.8,0,3.7,0,5.5,0c0.6,0,0.7-0.2,0.7-0.7c0-1.5,0-3,0-4.4c0-2.9-2.3-5.2-5.3-5.2
		c-1.7,0-1.7,0-1.7-1.7c0-1.5,0-3.1,0-4.6c0-0.4-0.1-0.8,0.5-0.7c1.7,0.1,3.5-0.2,5.2,0.2c4.9,1,8.4,5.3,8.4,10.3
		C17.7,71.6,17.7,73.7,17.7,75.8z"/>
	<path class="st0" d="M24.6,98.2c0-2.3,0-4.6,0-6.8c0-0.6,0.1-0.9,0.8-0.9c4.2,0,8.3,0,12.5,0c0.6,0,0.8,0.1,0.8,0.8
		c0,1.9,0,3.8,0,5.6c0,0.6-0.2,0.8-0.7,0.7c-1.8,0-3.7,0-5.5,0c-0.6,0-0.8,0.2-0.8,0.8c0,1.5,0,3,0,4.5c0.1,3,2.3,5,5.4,5.1
		c1.6,0,1.6,0,1.6,1.7c0,1.6,0,3.2,0,4.7c0,0.3,0.1,0.7-0.4,0.7c-2.7,0-5.4,0.2-7.9-1.1c-3.7-2-5.7-5.1-5.8-9.3
		C24.6,102.5,24.6,100.3,24.6,98.2z"/>
	<path class="st0" d="M139.2,95.8c0,3.8,0,7.6,0,11.4c0,0.7-0.2,0.9-0.9,0.9c-1.5-0.1-3.1,0-4.6,0c-0.6,0-0.7-0.1-0.7-0.7
		c0-7.7,0-15.4,0-23.2c0-0.6,0.2-0.8,0.7-0.7c1.6,0,3.2,0,4.7,0c0.6,0,0.8,0.2,0.8,0.8C139.2,88.1,139.2,92,139.2,95.8z"/>
	<path class="st0" d="M136,71.5c2.3,0,4,1.6,4.1,3.7c0,2.1-1.7,3.8-3.9,3.8c-2.2,0-4-1.6-4.1-3.7C132.1,73.2,133.9,71.5,136,71.5z"
		/>
	<g>
		<path class="st0" d="M128.1,104.9c0-11.5,0-23,0-34.5c0-0.8-0.2-1.1-1-1.1c-1.4,0.1-2.8,0.1-4.2,0c-0.8,0-1,0.2-1,1
			c0,5.1,0,10.1,0,15.2c0,0.3,0.1,0.6-0.1,0.9c-0.8-0.9-1.6-1.6-2.6-2.2c-5.7-3.2-13.1-0.9-16,5c-1.3,2.6-1.7,5.3-1.4,8.2
			c0.3,3.2,1.5,6.1,3.9,8.3c4.5,4.2,13.4,3.9,16.5-0.9c0,0.9,0,1.7,0,2.6c0,0.5,0.2,0.6,0.6,0.6c1.6,0,3.2,0,4.7,0
			c0.5,0,0.6-0.2,0.6-0.6C128.1,106.6,128.1,105.8,128.1,104.9z M114.8,103c-4.1,0-7-3-7-7.3c0-4.1,3-7.2,7-7.2c4,0,7.2,3.2,7.2,7.3
			C122.1,100,119,103,114.8,103z"/>
		<path class="st0" d="M84,83c-8.5,0.9-13.2,8.7-11,16.5c1.5,5.7,6.5,9.2,13,9.2c0.8,0,1.7,0,2.7-0.2c4.8-0.9,8.2-3.5,9.9-8.2
			c1.6-4.7,1-9.2-2.3-13C93,83.6,88.8,82.5,84,83z M85.8,103c-4.1,0-7.1-3.1-7.1-7.2c0-4.1,3.1-7.3,7.1-7.3c4.1,0,7.1,3.2,7.1,7.4
			C93,100,89.9,103,85.8,103z"/>
	</g>
	<g>
		<path class="st0" d="M176.9,82.9c-8,0-13.5,5.3-13.6,12.7c-0.1,7.3,5.4,13.1,13.3,13.1c7.8,0,13.4-5.3,13.4-12.8
			C190,88.4,184.4,82.9,176.9,82.9z M176.4,103.1c-4-0.2-7-3.2-7-7.3c0-4.1,3.1-7.3,7.1-7.3c4.1,0,7.1,3.2,7.1,7.3
			C183.8,100,180.3,103.2,176.4,103.1z"/>
	</g>
	<g>
		<path class="st0" d="M192.7,80c-2,0-3.6,1.6-3.6,3.6c0,2,1.6,3.5,3.5,3.5c2,0,3.5-1.5,3.5-3.5C196.1,81.6,194.6,80,192.7,80z
			 M192.6,86.2c-1.4,0-2.6-1.2-2.6-2.7c0-1.5,1.1-2.6,2.6-2.6c1.4,0,2.6,1.1,2.6,2.6C195.3,85,194,86.3,192.6,86.2z"/>
	</g>
	<g>
		<path class="st0" d="M193.7,83.9c0.5-0.5,0.6-1.1,0.1-1.6c-0.6-0.7-1.4-0.5-2.2-0.4c-0.6,0.1-0.3,0.8-0.3,1.2
			c-0.1,0.5,0,0.9,0,1.4c0,0.3-0.2,0.8,0.4,0.8c0.7,0.1,0.5-0.5,0.7-1c0.4,0.8,0.8,1.2,1.6,0.9C194,84.7,193.1,84.5,193.7,83.9z
			 M192.6,83.4c-0.4,0-0.3-0.2-0.3-0.5c0-0.2,0.1-0.3,0.3-0.3c0.3,0,0.4,0.2,0.5,0.4C193,83.3,192.8,83.3,192.6,83.4z"/>
	</g>
</g>
<g id="DBWmTe.tif">
	<g>
		<path class="st0" d="M296.4,108c-1.8,0-3.6,0-5.4,0.1c-0.9,0-0.7-0.5-0.7-1.1c0-4,0-8.1,0-12.1c0-0.8-0.1-1.6-0.2-2.4
			c-0.4-2.2-1.6-3.5-3.2-3.9c-2.3-0.4-4.4,0.4-5.6,2.2c-0.7,1.1-1,2.4-1,3.7c0,4.1,0,8.2,0,12.4c0,0.9-0.3,1.2-1.2,1.1
			c-1.3-0.1-2.6-0.1-3.9,0c-0.9,0-1.1-0.2-1.1-1.1c0-3.8,0-7.7,0-11.5c0-8.7,0-17.3,0-26c2,0,4.1,0,6.1,0c0.3,0.3,0.3,0.7,0.3,1.1
			c0,5.1,0,10.2,0,15.2c0.4-0.7,1-1.2,1.7-1.7c3.5-2.6,10.6-2.1,13.2,2.6c0.6,1.2,0.7,2.4,1,3.6C296.4,96.2,296.4,102.1,296.4,108z"
			/>
		<path class="st0" d="M257.4,108.7c-0.6-0.6-1.4-0.5-2.1-0.7c-1.5-0.5-2.9-1.3-4.1-2.4c-0.5-0.5-0.7-0.8,0-1.3c1-0.8,2-1.7,2.9-2.7
			c0.5-0.5,0.8-0.5,1.3,0c1.1,1.1,2.3,2.1,3.9,2.3c1.5,0.2,2.9,0.1,4.1-0.7c1.7-1.1,1.6-3.1-0.2-4c-1.6-0.9-3.5-1.1-5.3-1.5
			c-1.6-0.3-3.1-0.8-4.4-1.8c-3.1-2.4-3-7.5,0-10.4c3.7-3.5,12.1-3.3,15.7,0.4c0.6,0.7,0.7,1.1-0.1,1.6c-0.4,0.3-0.8,0.7-1.2,1
			c-0.6,0.6-1.2,1.4-1.9,1.6c-0.8,0.2-1.1-0.9-1.8-1.3c-1.6-0.9-3.3-1.2-5-0.5c-1,0.4-1.7,1.1-1.7,2.2c0,1.1,0.7,1.6,1.6,1.9
			c1.6,0.6,3.4,0.9,5.1,1.3c0.8,0.2,1.6,0.5,2.4,0.8c2.4,1.1,3.9,2.8,4.1,5.5c0.2,3-0.8,5.4-3.5,7c-1.4,0.9-3.1,1-4.6,1.7
			C260.9,108.7,259.1,108.7,257.4,108.7z"/>
		<path class="st0" d="M211.1,108.7c-0.3-0.4-0.7-0.4-1.1-0.5c-6.2-1.6-10-6.7-9.7-13.1c0.3-6.2,4.6-11,10.7-12
			c4-0.6,7.6,0.1,10.8,2.7c0.7,0.6,0.7,1,0,1.6c-1,0.9-2,1.9-3,2.9c-0.4,0.4-0.7,0.5-1.1,0.1c-3-3.2-7.1-2-9.2,0
			c-2.6,2.6-2.8,6.9-0.6,9.9c2.3,3.1,7.4,3.7,9.9,0.9c0.3-0.4,0.5-0.5,0.9,0c1,1.1,2,2.2,3.1,3.3c0.6,0.6,0.4,0.9-0.2,1.3
			c-1.7,1.3-3.7,2.1-5.8,2.5c-0.2,0-0.4,0-0.5,0.3C214,108.7,212.5,108.7,211.1,108.7z"/>
		<g>
			<path class="st0" d="M246.9,91.1c-0.1-4-2.4-6.6-6.2-7.7c-2.9-0.8-5.7-0.7-8.6,0c-2,0.5-3.7,1.4-5.3,2.7c-0.6,0.5-0.6,0.9,0,1.4
				c0.6,0.6,1.3,1.2,1.8,1.8c0.5,0.7,0.9,0.6,1.6,0.1c2.4-1.8,5.1-2.4,8-1.6c1.6,0.4,2.8,1.4,3.2,3.2c0.3,1.5,0.2,1.7-1.3,1.7
				c-0.6,0-1.1,0-1.7,0c-3.3,0.1-6.5,0.3-9.6,1.8c-3.2,1.5-4.5,4-4.2,7.7c0.2,2.7,2.4,5.1,5.4,6c0.4,0.1,0.9,0.1,1.2,0.5
				c1.4,0,2.8,0,4.2,0c0.3-0.4,0.8-0.3,1.2-0.4c1.8-0.5,3.3-1.4,4.4-3c0.1-0.2,0.2-0.4,0.5-0.2c0,0.7,0,1.4,0,2.1
				c0,0.7,0.1,1,0.9,0.9c1.3,0,2.5,0,3.8,0c0.6,0,0.8-0.3,0.8-0.9C246.9,101.8,247,96.5,246.9,91.1z M240.9,99.9
				c-0.8,3.6-6.1,5.5-9.1,3.2c-1.7-1.3-1.6-3.5,0.3-4.6c2-1.2,4.2-1.3,6.4-1.4c0.1,0,0.2,0,0.2,0C241.2,97.1,241.5,97.5,240.9,99.9z
				"/>
		</g>
	</g>
</g>
</svg>
